<?xml version="1.0" standalone="no"?>
<!DOCTYPE svg PUBLIC "-//W3C//DTD SVG 20010904//EN"
 "http://www.w3.org/TR/2001/REC-SVG-20010904/DTD/svg10.dtd">
<svg version="1.0" xmlns="http://www.w3.org/2000/svg"
 width="512.000000pt" height="512.000000pt" viewBox="0 0 512.000000 512.000000"
 preserveAspectRatio="xMidYMid meet">

<g transform="translate(0.000000,512.000000) scale(0.100000,-0.100000)"
fill="#000000" stroke="none">
<path d="M593 5101 c-63 -21 -115 -60 -154 -114 -56 -77 -59 -104 -59 -522 0
-372 1 -383 21 -409 11 -14 29 -26 40 -26 18 0 19 -8 19 -103 l0 -103 -35 -17
c-20 -9 -37 -26 -40 -39 -3 -13 -4 -813 -3 -1778 l3 -1755 21 -46 c31 -67 87
-124 152 -156 l57 -28 1323 -3 1323 -2 24 24 c32 32 33 75 2 104 l-23 22
-1032 0 -1032 0 0 2410 0 2410 1454 0 1453 0 34 -23 c19 -13 39 -38 46 -57 9
-26 12 -279 12 -997 l1 -962 -387 -3 -388 -3 -62 -29 c-73 -33 -144 -103 -176
-174 -19 -40 -22 -65 -22 -162 0 -97 3 -122 22 -162 32 -71 103 -141 176 -174
l62 -29 388 -3 387 -3 -1 -962 c0 -718 -3 -971 -12 -997 -7 -19 -27 -44 -46
-57 -33 -23 -40 -23 -296 -23 -260 0 -262 0 -283 -23 -29 -31 -28 -72 3 -102
l24 -25 261 0 c151 0 279 4 303 11 104 26 183 124 194 242 l6 65 96 4 c85 3
103 7 151 34 60 34 113 100 130 164 7 25 9 705 8 2061 l-3 2024 -22 41 c-59
110 -123 147 -264 152 l-96 4 -6 64 c-11 119 -90 217 -194 243 -29 8 -588 11
-1775 11 -1637 -1 -1736 -2 -1785 -19z m3935 -471 c56 -35 62 -63 62 -311 0
-207 -1 -221 -17 -213 -10 4 -64 10 -120 12 l-103 4 0 264 0 264 73 0 c55 0
80 -5 105 -20z m9 -686 c48 -35 52 -65 52 -368 l1 -278 -22 7 c-13 4 -67 10
-120 12 l-98 5 0 325 0 325 79 -3 c61 -3 86 -9 108 -25z m-8 -800 c56 -33 56
-32 59 -390 l3 -331 -53 13 c-29 8 -67 14 -85 14 l-32 0 -3 184 -3 184 -32 40
-33 41 0 130 0 131 76 0 c52 0 85 -5 103 -16z m0 -869 c58 -29 61 -51 61 -398
l0 -315 -37 14 c-21 7 -75 13 -120 14 l-83 0 0 322 0 322 27 28 c22 23 35 28
75 28 27 0 62 -7 77 -15z m-14 -849 c19 -8 44 -30 55 -48 20 -32 20 -46 18
-435 l-3 -403 -33 -32 c-31 -31 -37 -33 -117 -37 l-85 -3 0 486 0 486 65 0
c36 0 81 -6 100 -14z"/>
<path d="M1702 4419 c-26 -13 -55 -39 -70 -62 l-27 -41 0 -292 0 -292 31 -39
c16 -21 50 -48 74 -60 l44 -23 747 0 746 0 44 23 c24 13 58 43 74 66 l30 43 3
271 c3 266 2 273 -20 316 -13 25 -40 59 -61 75 l-39 31 -766 3 -767 2 -43 -21z
m1538 -148 c6 -12 10 -109 10 -247 0 -198 -2 -230 -17 -246 -15 -17 -51 -18
-730 -18 -473 0 -721 3 -734 10 -18 10 -19 24 -19 253 0 176 3 246 12 255 9 9
187 12 740 12 709 0 728 0 738 -19z"/>
<path d="M1640 3377 c-32 -16 -47 -58 -34 -94 19 -54 -2 -53 849 -53 614 0
796 3 815 13 52 26 52 105 0 132 -25 13 -132 15 -817 15 -612 0 -794 -3 -813
-13z"/>
<path d="M1626 2989 c-28 -22 -35 -64 -16 -99 20 -38 55 -40 635 -40 385 0
572 3 594 11 55 19 69 82 26 124 l-24 25 -594 0 c-586 0 -595 0 -621 -21z"/>
<path d="M1640 1137 c-32 -16 -47 -58 -34 -94 18 -53 18 -53 562 -50 l504 2
19 24 c10 13 19 36 19 51 0 15 -9 38 -19 51 l-19 24 -504 2 c-391 2 -509 0
-528 -10z"/>
<path d="M1622 747 c-29 -31 -29 -77 1 -105 l23 -22 810 0 811 0 21 23 c29 31
29 77 -1 105 l-23 22 -810 0 -811 0 -21 -23z"/>
</g>
</svg>
