<?xml version="1.0" standalone="no"?>
<!DOCTYPE svg PUBLIC "-//W3C//DTD SVG 20010904//EN"
 "http://www.w3.org/TR/2001/REC-SVG-20010904/DTD/svg10.dtd">
<svg version="1.0" xmlns="http://www.w3.org/2000/svg"
 width="512.000000pt" height="512.000000pt" viewBox="0 0 512.000000 512.000000"
 preserveAspectRatio="xMidYMid meet">

<g transform="translate(0.000000,512.000000) scale(0.100000,-0.100000)"
fill="#000000" stroke="none">
<path d="M3100 742 c-29 -15 -45 -38 -87 -123 -41 -84 -64 -116 -116 -165 -74
-70 -146 -109 -232 -125 -33 -6 -70 -13 -82 -15 -23 -4 -23 -7 -23 -149 l0
-145 53 0 c108 0 265 52 380 126 82 53 179 151 227 227 19 31 42 57 50 57 8 0
386 -94 841 -210 454 -116 844 -210 866 -210 144 0 193 199 67 272 -16 9 -218
64 -449 123 -231 58 -589 149 -795 201 -206 53 -426 109 -488 125 -131 34
-165 36 -212 11z"/>
</g>
</svg>
